<svg width="1129" height="274" viewBox="0 0 1129 274" fill="none" xmlns="http://www.w3.org/2000/svg">
    <path
        d="M771.528 216.812L820.305 145.185C835.681 122.605 861.232 109.092 888.55 109.092L888.55 273.556L888.047 273.556L844.086 273.557L844.086 171.554L841.895 177.684C840.848 180.613 839.456 183.407 837.75 186.007L786.22 264.544C779.445 274.871 764.332 274.944 757.456 264.685L706.371 188.461C704.121 185.104 702.403 181.419 701.277 177.538L699.542 171.554L699.542 183.87L699.545 183.871L699.545 273.557L655.509 273.557L654.828 273.556L654.828 109.092C681.552 109.092 706.561 122.253 721.694 144.279L771.528 216.812Z"
        fill="white" />
    <path fill-rule="evenodd" clip-rule="evenodd"
        d="M221.448 172.086H175.042C164.902 154.969 140.508 142.907 112.027 142.907C74.4506 142.907 43.9889 163.903 43.9889 189.803C43.9889 215.703 74.4506 236.699 112.027 236.699C134.693 236.699 154.771 229.059 167.135 217.312H217.633C202.214 249.187 160.754 272.013 112.029 272.013C50.1569 272.013 0 235.208 0 189.807C0 144.405 50.1569 107.6 112.029 107.6C165.609 107.6 210.404 135.202 221.448 172.086Z"
        fill="white" />
    <path fill-rule="evenodd" clip-rule="evenodd"
        d="M1016 272.033C1077.87 272.033 1128.03 235.228 1128.03 189.827C1128.03 144.425 1077.87 107.62 1016 107.62C954.126 107.62 903.969 144.425 903.969 189.827C903.969 235.228 954.126 272.033 1016 272.033ZM1016.01 236.724C1053.58 236.724 1084.05 215.728 1084.05 189.828C1084.05 163.928 1053.58 142.932 1016.01 142.932C978.432 142.932 947.971 163.928 947.971 189.828C947.971 215.728 978.432 236.724 1016.01 236.724Z"
        fill="white" />
    <path fill-rule="evenodd" clip-rule="evenodd"
        d="M838.893 70.1114C777.014 70.1114 771.785 123.156 771.647 139.551L771.644 139.551C771.503 123.156 766.268 70.1114 704.398 70.1114C766.521 70.1114 771.545 16.9721 771.645 0.9162C771.743 16.9721 776.761 70.1114 838.893 70.1114ZM771.644 0.659028C771.644 0.743653 771.645 0.829392 771.645 0.9162C771.646 0.829392 771.646 0.743653 771.646 0.659028L771.644 0.659028Z"
        fill="white" />
    <path fill-rule="evenodd" clip-rule="evenodd"
        d="M636.901 173.63L590.49 173.63C580.349 156.515 555.958 144.454 527.479 144.454C489.904 144.454 459.444 165.45 459.444 191.35C459.444 217.25 489.904 238.246 527.479 238.246C544.772 238.246 560.559 233.799 572.562 226.473C577.569 223.418 582.709 220.484 588.342 218.851L576.038 218.851L520.339 218.851C533.354 204.241 551.989 195.885 571.556 195.885L639.93 195.885C639.684 201.698 638.251 207.399 635.719 212.638L635.715 212.646C622.929 247.724 579.317 273.557 527.482 273.557C465.61 273.557 415.453 236.752 415.453 191.35C415.453 145.949 465.61 109.144 527.482 109.144C581.063 109.144 625.858 136.746 636.901 173.63Z"
        fill="white" />
    <path fill-rule="evenodd" clip-rule="evenodd"
        d="M438.734 273.557L334.241 116.959C327.354 106.638 312.157 106.726 305.389 117.126L296.794 130.334L296.809 130.357L199.266 273.557L244.649 273.557L281.906 218.861L356.39 218.861L393.211 273.557L438.734 273.557ZM319.367 163.865L336.043 188.636C338.392 192.126 341.893 194.68 345.934 195.852L334.652 195.852L334.65 195.841L302.225 195.841L302.223 195.852L292.698 195.852C296.63 194.711 300.041 192.237 302.346 188.854L319.367 163.865Z"
        fill="white" />
    <path
        d="M475.375 72.8993C471.316 76.9579 466.349 78.9871 460.474 78.9871C454.599 78.9871 449.613 76.9579 445.515 72.8993C441.457 68.8022 439.428 63.816 439.428 57.9408C439.428 52.0656 441.457 47.0987 445.515 43.0402C449.613 38.9431 454.599 36.8945 460.474 36.8945C466.349 36.8945 471.316 38.9431 475.375 43.0402C479.472 47.0987 481.52 52.0656 481.52 57.9408C481.52 63.816 479.472 68.8022 475.375 72.8993ZM450.212 68.377C453.033 71.1213 456.454 72.4935 460.474 72.4935C464.533 72.4935 467.934 71.1213 470.678 68.377C473.461 65.594 474.853 62.1153 474.853 57.9408C474.853 53.7663 473.461 50.3069 470.678 47.5626C467.934 44.7796 464.533 43.3881 460.474 43.3881C456.416 43.3881 452.995 44.7796 450.212 47.5626C447.467 50.3069 446.095 53.7663 446.095 57.9408C446.095 62.0766 447.467 65.5554 450.212 68.377ZM487.602 37.6482H502.561C506.387 37.6482 509.576 38.9237 512.127 41.4748C514.717 44.0259 516.012 47.1954 516.012 50.9833C516.012 54.7326 514.717 57.9021 512.127 60.4919C509.576 63.0429 506.387 64.3185 502.561 64.3185H494.27V78.2334H487.602V37.6482ZM494.27 58.0568H502.561C504.532 58.0568 506.155 57.3997 507.431 56.0855C508.707 54.7326 509.344 53.0319 509.344 50.9833C509.344 48.9347 508.707 47.2534 507.431 45.9392C506.155 44.5863 504.532 43.9099 502.561 43.9099H494.27V58.0568ZM535.426 57.419L552.414 78.2334H544.47L528.468 58.9264V78.2334H521.801V37.6482H528.468V55.8536L543.891 37.6482H551.834L535.426 57.419ZM563.403 60.8977V71.8557H581.376V78.2334H556.735V37.6482H581.086V44.0259H563.403V54.578H579.637V60.8977H563.403ZM606.331 78.9871C600.224 78.9871 595.161 76.9772 591.141 72.9573C587.121 68.8601 585.111 63.8546 585.111 57.9408C585.111 51.9883 587.121 47.0021 591.141 42.9822C595.122 38.9237 600.185 36.8945 606.331 36.8945C610.003 36.8945 613.385 37.7642 616.477 39.5035C619.608 41.2429 622.043 43.6007 623.783 46.5769L617.985 49.9397C616.903 47.9298 615.318 46.345 613.231 45.1854C611.182 43.9872 608.882 43.3881 606.331 43.3881C602.041 43.3881 598.523 44.7603 595.779 47.5046C593.112 50.2103 591.778 53.689 591.778 57.9408C591.778 62.1926 593.112 65.6713 595.779 68.377C598.523 71.1213 602.041 72.4935 606.331 72.4935C608.882 72.4935 611.201 71.9137 613.289 70.7541C615.376 69.5559 616.941 67.9518 617.985 65.9419L623.783 69.2467C622.121 72.1843 619.705 74.5614 616.535 76.3781C613.482 78.1174 610.08 78.9871 606.331 78.9871ZM625.85 37.6482H655.419V44.0259H643.997V78.2334H637.33V44.0259H625.85V37.6482ZM660.35 37.6482H675.308C679.135 37.6482 682.324 38.9237 684.875 41.4748C687.465 44.0259 688.759 47.1954 688.759 50.9833C688.759 54.7326 687.465 57.9021 684.875 60.4919C682.324 63.0429 679.135 64.3185 675.308 64.3185H667.017V78.2334H660.35V37.6482ZM667.017 58.0568H675.308C677.28 58.0568 678.903 57.3997 680.179 56.0855C681.454 54.7326 682.092 53.0319 682.092 50.9833C682.092 48.9347 681.454 47.2534 680.179 45.9392C678.903 44.5863 677.28 43.9099 675.308 43.9099H667.017V58.0568Z"
        fill="white" />
</svg>
    